<?xml version="1.0" encoding="UTF-8" standalone="no"?>
<!DOCTYPE svg PUBLIC "-//W3C//DTD SVG 1.1//EN"
 "http://www.w3.org/Graphics/SVG/1.1/DTD/svg11.dtd">
<!-- Generated by graphviz version 12.2.1 (20241206.2353)
 -->
<!-- Title: G Pages: 1 -->
<svg width="2845pt" height="654pt"
 viewBox="0.00 0.00 2845.00 654.00" xmlns="http://www.w3.org/2000/svg" xmlns:xlink="http://www.w3.org/1999/xlink">
<g id="graph0" class="graph" transform="scale(1 1) rotate(0) translate(4 650)">
<title>G</title>
<polygon fill="white" stroke="none" points="-4,4 -4,-650 2841,-650 2841,4 -4,4"/>
<g id="clust1" class="cluster">
<title>cluster_module.compute</title>
<polygon fill="none" stroke="black" points="523.75,-96 523.75,-338 1665.75,-338 1665.75,-96 523.75,-96"/>
<text text-anchor="middle" x="1094.75" y="-320.7" font-family="sans-serif" font-size="14.00">module.compute</text>
</g>
<g id="clust2" class="cluster">
<title>cluster_module.db</title>
<polygon fill="none" stroke="black" points="1733.75,-216 1733.75,-458 2829,-458 2829,-216 1733.75,-216"/>
<text text-anchor="middle" x="2281.38" y="-440.7" font-family="sans-serif" font-size="14.00">module.db</text>
</g>
<g id="clust3" class="cluster">
<title>cluster_module.iam</title>
<polygon fill="none" stroke="black" points="2161.88,-491 2161.88,-625 2800.12,-625 2800.12,-491 2161.88,-491"/>
<text text-anchor="middle" x="2481" y="-607.7" font-family="sans-serif" font-size="14.00">module.iam</text>
</g>
<g id="clust4" class="cluster">
<title>cluster_module.network</title>
<polygon fill="none" stroke="black" points="195.75,-396 195.75,-638 1713.75,-638 1713.75,-396 195.75,-396"/>
<text text-anchor="middle" x="954.75" y="-620.7" font-family="sans-serif" font-size="14.00">module.network</text>
</g>
<g id="clust5" class="cluster">
<title>cluster_module.s3</title>
<polygon fill="none" stroke="black" points="8,-8 8,-88 759.75,-88 759.75,-8 8,-8"/>
<text text-anchor="middle" x="383.88" y="-70.7" font-family="sans-serif" font-size="14.00">module.s3</text>
</g>
<!-- module.compute.data.aws_ami.amazon_linux -->
<g id="node1" class="node">
<title>module.compute.data.aws_ami.amazon_linux</title>
<polygon fill="none" stroke="black" points="1002.12,-248 803.88,-248 803.88,-212 1002.12,-212 1002.12,-248"/>
<text text-anchor="middle" x="903" y="-226.45" font-family="sans-serif" font-size="14.00">data.aws_ami.amazon_linux</text>
</g>
<!-- module.compute.aws_autoscaling_group.myasg -->
<g id="node2" class="node">
<title>module.compute.aws_autoscaling_group.myasg</title>
<polygon fill="none" stroke="black" points="1657.75,-302 1443,-302 1443,-266 1657.75,-266 1657.75,-302"/>
<text text-anchor="middle" x="1550.38" y="-280.45" font-family="sans-serif" font-size="14.00">aws_autoscaling_group.myasg</text>
</g>
<!-- module.compute.aws_launch_template.apptemplate -->
<g id="node4" class="node">
<title>module.compute.aws_launch_template.apptemplate</title>
<polygon fill="none" stroke="black" points="1329,-194 1084.25,-194 1084.25,-158 1329,-158 1329,-194"/>
<text text-anchor="middle" x="1206.62" y="-172.45" font-family="sans-serif" font-size="14.00">aws_launch_template.apptemplate</text>
</g>
<!-- module.compute.aws_autoscaling_group.myasg&#45;&gt;module.compute.aws_launch_template.apptemplate -->
<g id="edge1" class="edge">
<title>module.compute.aws_autoscaling_group.myasg&#45;&gt;module.compute.aws_launch_template.apptemplate</title>
<path fill="none" stroke="black" d="M1442.52,-276.97C1425.73,-272.65 1409.24,-266.29 1395,-257 1370.84,-241.24 1383.13,-218.8 1359,-203 1352.99,-199.07 1346.57,-195.66 1339.9,-192.72"/>
<polygon fill="black" stroke="black" points="1341.21,-189.47 1330.62,-189.02 1338.62,-195.97 1341.21,-189.47"/>
</g>
<!-- module.compute.aws_lb_target_group.mytg -->
<g id="node7" class="node">
<title>module.compute.aws_lb_target_group.mytg</title>
<polygon fill="none" stroke="black" points="1300.88,-302 1112.38,-302 1112.38,-266 1300.88,-266 1300.88,-302"/>
<text text-anchor="middle" x="1206.62" y="-280.45" font-family="sans-serif" font-size="14.00">aws_lb_target_group.mytg</text>
</g>
<!-- module.compute.aws_autoscaling_group.myasg&#45;&gt;module.compute.aws_lb_target_group.mytg -->
<g id="edge2" class="edge">
<title>module.compute.aws_autoscaling_group.myasg&#45;&gt;module.compute.aws_lb_target_group.mytg</title>
<path fill="none" stroke="black" d="M1442.65,-284C1401.21,-284 1353.88,-284 1312.6,-284"/>
<polygon fill="black" stroke="black" points="1312.64,-280.5 1302.64,-284 1312.64,-287.5 1312.64,-280.5"/>
</g>
<!-- module.network.aws_subnet.privatesubnet -->
<g id="node29" class="node">
<title>module.network.aws_subnet.privatesubnet</title>
<polygon fill="none" stroke="black" points="718,-440 528,-440 528,-404 718,-404 718,-440"/>
<text text-anchor="middle" x="623" y="-418.45" font-family="sans-serif" font-size="14.00">aws_subnet.privatesubnet</text>
</g>
<!-- module.compute.aws_autoscaling_group.myasg&#45;&gt;module.network.aws_subnet.privatesubnet -->
<g id="edge3" class="edge">
<title>module.compute.aws_autoscaling_group.myasg&#45;&gt;module.network.aws_subnet.privatesubnet</title>
<path fill="none" stroke="black" d="M1442.77,-299.9C1264.34,-326.51 907.32,-379.75 729.58,-406.26"/>
<polygon fill="black" stroke="black" points="729.26,-402.76 719.89,-407.7 730.3,-409.69 729.26,-402.76"/>
</g>
<!-- module.compute.aws_instance.bastionhost -->
<g id="node3" class="node">
<title>module.compute.aws_instance.bastionhost</title>
<polygon fill="none" stroke="black" points="1299.38,-248 1113.88,-248 1113.88,-212 1299.38,-212 1299.38,-248"/>
<text text-anchor="middle" x="1206.62" y="-226.45" font-family="sans-serif" font-size="14.00">aws_instance.bastionhost</text>
</g>
<!-- module.compute.aws_instance.bastionhost&#45;&gt;module.compute.data.aws_ami.amazon_linux -->
<g id="edge4" class="edge">
<title>module.compute.aws_instance.bastionhost&#45;&gt;module.compute.data.aws_ami.amazon_linux</title>
<path fill="none" stroke="black" d="M1113.49,-230C1082.03,-230 1046.53,-230 1013.82,-230"/>
<polygon fill="black" stroke="black" points="1013.89,-226.5 1003.89,-230 1013.89,-233.5 1013.89,-226.5"/>
</g>
<!-- module.compute.aws_security_group.bastion_sg -->
<g id="node8" class="node">
<title>module.compute.aws_security_group.bastion_sg</title>
<polygon fill="none" stroke="black" points="1012.62,-302 793.38,-302 793.38,-266 1012.62,-266 1012.62,-302"/>
<text text-anchor="middle" x="903" y="-280.45" font-family="sans-serif" font-size="14.00">aws_security_group.bastion_sg</text>
</g>
<!-- module.compute.aws_instance.bastionhost&#45;&gt;module.compute.aws_security_group.bastion_sg -->
<g id="edge5" class="edge">
<title>module.compute.aws_instance.bastionhost&#45;&gt;module.compute.aws_security_group.bastion_sg</title>
<path fill="none" stroke="black" d="M1113.56,-246.4C1093.98,-249.89 1073.43,-253.57 1054.25,-257 1042.47,-259.11 1030.16,-261.32 1017.89,-263.52"/>
<polygon fill="black" stroke="black" points="1017.36,-260.06 1008.13,-265.27 1018.59,-266.95 1017.36,-260.06"/>
</g>
<!-- module.network.aws_subnet.publicsubnet -->
<g id="node30" class="node">
<title>module.network.aws_subnet.publicsubnet</title>
<polygon fill="none" stroke="black" points="715,-494 531,-494 531,-458 715,-458 715,-494"/>
<text text-anchor="middle" x="623" y="-472.45" font-family="sans-serif" font-size="14.00">aws_subnet.publicsubnet</text>
</g>
<!-- module.compute.aws_instance.bastionhost&#45;&gt;module.network.aws_subnet.publicsubnet -->
<g id="edge6" class="edge">
<title>module.compute.aws_instance.bastionhost&#45;&gt;module.network.aws_subnet.publicsubnet</title>
<path fill="none" stroke="black" d="M1113.51,-234.39C1092.8,-238.54 1071.78,-245.52 1054.25,-257 1030.12,-272.8 1039.62,-291.62 1018.25,-311 921.78,-398.49 882.38,-405.16 759.75,-449 749.03,-452.83 737.64,-456.17 726.17,-459.06"/>
<polygon fill="black" stroke="black" points="725.56,-455.61 716.66,-461.35 727.2,-462.42 725.56,-455.61"/>
</g>
<!-- module.compute.aws_launch_template.apptemplate&#45;&gt;module.compute.data.aws_ami.amazon_linux -->
<g id="edge7" class="edge">
<title>module.compute.aws_launch_template.apptemplate&#45;&gt;module.compute.data.aws_ami.amazon_linux</title>
<path fill="none" stroke="black" d="M1102.21,-194.43C1086.15,-197.29 1069.75,-200.22 1054.25,-203 1041.08,-205.36 1027.25,-207.84 1013.55,-210.3"/>
<polygon fill="black" stroke="black" points="1013.31,-206.78 1004.09,-212 1014.55,-213.67 1013.31,-206.78"/>
</g>
<!-- module.compute.aws_security_group.web_sg -->
<g id="node10" class="node">
<title>module.compute.aws_security_group.web_sg</title>
<polygon fill="none" stroke="black" points="1002.12,-194 803.88,-194 803.88,-158 1002.12,-158 1002.12,-194"/>
<text text-anchor="middle" x="903" y="-172.45" font-family="sans-serif" font-size="14.00">aws_security_group.web_sg</text>
</g>
<!-- module.compute.aws_launch_template.apptemplate&#45;&gt;module.compute.aws_security_group.web_sg -->
<g id="edge8" class="edge">
<title>module.compute.aws_launch_template.apptemplate&#45;&gt;module.compute.aws_security_group.web_sg</title>
<path fill="none" stroke="black" d="M1083.81,-176C1060.59,-176 1036.42,-176 1013.61,-176"/>
<polygon fill="black" stroke="black" points="1013.69,-172.5 1003.69,-176 1013.69,-179.5 1013.69,-172.5"/>
</g>
<!-- module.compute.aws_lb.applb -->
<g id="node5" class="node">
<title>module.compute.aws_lb.applb</title>
<polygon fill="none" stroke="black" points="952.62,-140 853.38,-140 853.38,-104 952.62,-104 952.62,-140"/>
<text text-anchor="middle" x="903" y="-118.45" font-family="sans-serif" font-size="14.00">aws_lb.applb</text>
</g>
<!-- module.compute.aws_security_group.lb_sg -->
<g id="node9" class="node">
<title>module.compute.aws_security_group.lb_sg</title>
<polygon fill="none" stroke="black" points="714.25,-194 531.75,-194 531.75,-158 714.25,-158 714.25,-194"/>
<text text-anchor="middle" x="623" y="-172.45" font-family="sans-serif" font-size="14.00">aws_security_group.lb_sg</text>
</g>
<!-- module.compute.aws_lb.applb&#45;&gt;module.compute.aws_security_group.lb_sg -->
<g id="edge9" class="edge">
<title>module.compute.aws_lb.applb&#45;&gt;module.compute.aws_security_group.lb_sg</title>
<path fill="none" stroke="black" d="M852.94,-131.53C817.81,-138.35 769.24,-147.79 725.88,-156.21"/>
<polygon fill="black" stroke="black" points="725.32,-152.75 716.17,-158.1 726.66,-159.62 725.32,-152.75"/>
</g>
<!-- module.compute.aws_lb.applb&#45;&gt;module.network.aws_subnet.publicsubnet -->
<g id="edge10" class="edge">
<title>module.compute.aws_lb.applb&#45;&gt;module.network.aws_subnet.publicsubnet</title>
<path fill="none" stroke="black" d="M853.12,-121.14C829.91,-123.46 803.8,-130.55 787.75,-149 743.81,-199.52 804.59,-399.27 759.75,-449 750.64,-459.11 738.91,-466.06 726.17,-470.77"/>
<polygon fill="black" stroke="black" points="725.2,-467.41 716.71,-473.76 727.3,-474.08 725.2,-467.41"/>
</g>
<!-- module.s3.aws_s3_bucket_policy.alb_logs_policy -->
<g id="node33" class="node">
<title>module.s3.aws_s3_bucket_policy.alb_logs_policy</title>
<polygon fill="none" stroke="black" points="751.75,-52 494.25,-52 494.25,-16 751.75,-16 751.75,-52"/>
<text text-anchor="middle" x="623" y="-30.45" font-family="sans-serif" font-size="14.00">aws_s3_bucket_policy.alb_logs_policy</text>
</g>
<!-- module.compute.aws_lb.applb&#45;&gt;module.s3.aws_s3_bucket_policy.alb_logs_policy -->
<g id="edge11" class="edge">
<title>module.compute.aws_lb.applb&#45;&gt;module.s3.aws_s3_bucket_policy.alb_logs_policy</title>
<path fill="none" stroke="black" d="M852.94,-106.47C808.5,-92.4 742.57,-71.53 692.86,-55.8"/>
<polygon fill="black" stroke="black" points="694.23,-52.56 683.64,-52.88 692.12,-59.23 694.23,-52.56"/>
</g>
<!-- module.compute.aws_lb_listener.http -->
<g id="node6" class="node">
<title>module.compute.aws_lb_listener.http</title>
<polygon fill="none" stroke="black" points="1623.25,-248 1477.5,-248 1477.5,-212 1623.25,-212 1623.25,-248"/>
<text text-anchor="middle" x="1550.38" y="-226.45" font-family="sans-serif" font-size="14.00">aws_lb_listener.http</text>
</g>
<!-- module.compute.aws_lb_listener.http&#45;&gt;module.compute.aws_lb.applb -->
<g id="edge12" class="edge">
<title>module.compute.aws_lb_listener.http&#45;&gt;module.compute.aws_lb.applb</title>
<path fill="none" stroke="black" d="M1515.84,-211.53C1478.72,-192.11 1416.52,-162.51 1359,-149 1220.58,-116.48 1052.32,-116.31 964.3,-119.1"/>
<polygon fill="black" stroke="black" points="964.32,-115.59 954.45,-119.44 964.56,-122.59 964.32,-115.59"/>
</g>
<!-- module.compute.aws_lb_listener.http&#45;&gt;module.compute.aws_lb_target_group.mytg -->
<g id="edge13" class="edge">
<title>module.compute.aws_lb_listener.http&#45;&gt;module.compute.aws_lb_target_group.mytg</title>
<path fill="none" stroke="black" d="M1477.32,-241.39C1429.51,-248.94 1365.97,-258.98 1312.58,-267.42"/>
<polygon fill="black" stroke="black" points="1312.18,-263.94 1302.85,-268.95 1313.27,-270.85 1312.18,-263.94"/>
</g>
<!-- module.network.aws_vpc.myvpc -->
<g id="node31" class="node">
<title>module.network.aws_vpc.myvpc</title>
<polygon fill="none" stroke="black" points="388.5,-440 273.5,-440 273.5,-404 388.5,-404 388.5,-440"/>
<text text-anchor="middle" x="331" y="-418.45" font-family="sans-serif" font-size="14.00">aws_vpc.myvpc</text>
</g>
<!-- module.compute.aws_lb_target_group.mytg&#45;&gt;module.network.aws_vpc.myvpc -->
<g id="edge14" class="edge">
<title>module.compute.aws_lb_target_group.mytg&#45;&gt;module.network.aws_vpc.myvpc</title>
<path fill="none" stroke="black" d="M1112.07,-298.29C976.02,-319.14 715.61,-359.31 494.25,-395 463.26,-400 428.98,-405.68 399.94,-410.54"/>
<polygon fill="black" stroke="black" points="399.45,-407.07 390.16,-412.18 400.6,-413.97 399.45,-407.07"/>
</g>
<!-- module.compute.aws_security_group.bastion_sg&#45;&gt;module.network.aws_vpc.myvpc -->
<g id="edge15" class="edge">
<title>module.compute.aws_security_group.bastion_sg&#45;&gt;module.network.aws_vpc.myvpc</title>
<path fill="none" stroke="black" d="M793.03,-278.09C709.17,-276.95 591.54,-282.84 494.25,-316 442.65,-333.59 391.38,-371.37 360.69,-396.74"/>
<polygon fill="black" stroke="black" points="358.78,-393.77 353.38,-402.88 363.29,-399.13 358.78,-393.77"/>
</g>
<!-- module.compute.aws_security_group.lb_sg&#45;&gt;module.network.aws_vpc.myvpc -->
<g id="edge16" class="edge">
<title>module.compute.aws_security_group.lb_sg&#45;&gt;module.network.aws_vpc.myvpc</title>
<path fill="none" stroke="black" d="M597.02,-194.18C570.91,-213.41 528.97,-244.93 494.25,-274 445.35,-314.94 391.08,-365.56 359.34,-395.74"/>
<polygon fill="black" stroke="black" points="356.92,-393.21 352.1,-402.64 361.75,-398.27 356.92,-393.21"/>
</g>
<!-- module.compute.aws_security_group.web_sg&#45;&gt;module.compute.aws_security_group.lb_sg -->
<g id="edge17" class="edge">
<title>module.compute.aws_security_group.web_sg&#45;&gt;module.compute.aws_security_group.lb_sg</title>
<path fill="none" stroke="black" d="M803.6,-176C778.29,-176 751.01,-176 725.55,-176"/>
<polygon fill="black" stroke="black" points="725.89,-172.5 715.89,-176 725.89,-179.5 725.89,-172.5"/>
</g>
<!-- module.db.aws_docdb_cluster.mongodb -->
<g id="node11" class="node">
<title>module.db.aws_docdb_cluster.mongodb</title>
<polygon fill="none" stroke="black" points="2363.25,-314 2159.75,-314 2159.75,-278 2363.25,-278 2363.25,-314"/>
<text text-anchor="middle" x="2261.5" y="-292.45" font-family="sans-serif" font-size="14.00">aws_docdb_cluster.mongodb</text>
</g>
<!-- module.db.aws_docdb_subnet_group.mongodb -->
<g id="node13" class="node">
<title>module.db.aws_docdb_subnet_group.mongodb</title>
<polygon fill="none" stroke="black" points="2012.75,-314 1761.25,-314 1761.25,-278 2012.75,-278 2012.75,-314"/>
<text text-anchor="middle" x="1887" y="-292.45" font-family="sans-serif" font-size="14.00">aws_docdb_subnet_group.mongodb</text>
</g>
<!-- module.db.aws_docdb_cluster.mongodb&#45;&gt;module.db.aws_docdb_subnet_group.mongodb -->
<g id="edge18" class="edge">
<title>module.db.aws_docdb_cluster.mongodb&#45;&gt;module.db.aws_docdb_subnet_group.mongodb</title>
<path fill="none" stroke="black" d="M2159.7,-296C2118.08,-296 2069.2,-296 2024.46,-296"/>
<polygon fill="black" stroke="black" points="2024.7,-292.5 2014.7,-296 2024.7,-299.5 2024.7,-292.5"/>
</g>
<!-- module.db.aws_security_group.documentdb_sg -->
<g id="node16" class="node">
<title>module.db.aws_security_group.documentdb_sg</title>
<polygon fill="none" stroke="black" points="2014.25,-260 1759.75,-260 1759.75,-224 2014.25,-224 2014.25,-260"/>
<text text-anchor="middle" x="1887" y="-238.45" font-family="sans-serif" font-size="14.00">aws_security_group.documentdb_sg</text>
</g>
<!-- module.db.aws_docdb_cluster.mongodb&#45;&gt;module.db.aws_security_group.documentdb_sg -->
<g id="edge19" class="edge">
<title>module.db.aws_docdb_cluster.mongodb&#45;&gt;module.db.aws_security_group.documentdb_sg</title>
<path fill="none" stroke="black" d="M2159.7,-281.39C2118.48,-275.41 2070.14,-268.4 2025.75,-261.97"/>
<polygon fill="black" stroke="black" points="2026.45,-258.53 2016.05,-260.56 2025.44,-265.46 2026.45,-258.53"/>
</g>
<!-- module.db.random_password.docdb_password -->
<g id="node17" class="node">
<title>module.db.random_password.docdb_password</title>
<polygon fill="none" stroke="black" points="2010.5,-368 1763.5,-368 1763.5,-332 2010.5,-332 2010.5,-368"/>
<text text-anchor="middle" x="1887" y="-346.45" font-family="sans-serif" font-size="14.00">random_password.docdb_password</text>
</g>
<!-- module.db.aws_docdb_cluster.mongodb&#45;&gt;module.db.random_password.docdb_password -->
<g id="edge20" class="edge">
<title>module.db.aws_docdb_cluster.mongodb&#45;&gt;module.db.random_password.docdb_password</title>
<path fill="none" stroke="black" d="M2159.7,-310.61C2117.3,-316.76 2067.36,-324 2021.94,-330.58"/>
<polygon fill="black" stroke="black" points="2021.69,-327.08 2012.3,-331.98 2022.7,-334.01 2021.69,-327.08"/>
</g>
<!-- module.db.aws_docdb_cluster_instance.mongodb_instance -->
<g id="node12" class="node">
<title>module.db.aws_docdb_cluster_instance.mongodb_instance</title>
<polygon fill="none" stroke="black" points="2821,-314 2490.75,-314 2490.75,-278 2821,-278 2821,-314"/>
<text text-anchor="middle" x="2655.88" y="-292.45" font-family="sans-serif" font-size="14.00">aws_docdb_cluster_instance.mongodb_instance</text>
</g>
<!-- module.db.aws_docdb_cluster_instance.mongodb_instance&#45;&gt;module.db.aws_docdb_cluster.mongodb -->
<g id="edge21" class="edge">
<title>module.db.aws_docdb_cluster_instance.mongodb_instance&#45;&gt;module.db.aws_docdb_cluster.mongodb</title>
<path fill="none" stroke="black" d="M2490.46,-296C2451.64,-296 2411.12,-296 2375.18,-296"/>
<polygon fill="black" stroke="black" points="2375.2,-292.5 2365.2,-296 2375.2,-299.5 2375.2,-292.5"/>
</g>
<!-- module.db.aws_docdb_subnet_group.mongodb&#45;&gt;module.network.aws_subnet.privatesubnet -->
<g id="edge22" class="edge">
<title>module.db.aws_docdb_subnet_group.mongodb&#45;&gt;module.network.aws_subnet.privatesubnet</title>
<path fill="none" stroke="black" d="M1761.05,-311.9C1751.59,-314.98 1742.38,-318.64 1733.75,-323 1722.81,-328.53 1724.96,-337.02 1713.75,-342 1379.6,-490.39 930.92,-460.69 729.56,-436.95"/>
<polygon fill="black" stroke="black" points="730.25,-433.5 719.9,-435.79 729.42,-440.45 730.25,-433.5"/>
</g>
<!-- module.db.aws_secretsmanager_secret.docdb_secret -->
<g id="node14" class="node">
<title>module.db.aws_secretsmanager_secret.docdb_secret</title>
<polygon fill="none" stroke="black" points="2032.25,-422 1741.75,-422 1741.75,-386 2032.25,-386 2032.25,-422"/>
<text text-anchor="middle" x="1887" y="-400.45" font-family="sans-serif" font-size="14.00">aws_secretsmanager_secret.docdb_secret</text>
</g>
<!-- module.db.aws_secretsmanager_secret_version.docdb_secret_value -->
<g id="node15" class="node">
<title>module.db.aws_secretsmanager_secret_version.docdb_secret_value</title>
<polygon fill="none" stroke="black" points="2454.75,-395 2068.25,-395 2068.25,-359 2454.75,-359 2454.75,-395"/>
<text text-anchor="middle" x="2261.5" y="-373.45" font-family="sans-serif" font-size="14.00">aws_secretsmanager_secret_version.docdb_secret_value</text>
</g>
<!-- module.db.aws_secretsmanager_secret_version.docdb_secret_value&#45;&gt;module.db.aws_secretsmanager_secret.docdb_secret -->
<g id="edge23" class="edge">
<title>module.db.aws_secretsmanager_secret_version.docdb_secret_value&#45;&gt;module.db.aws_secretsmanager_secret.docdb_secret</title>
<path fill="none" stroke="black" d="M2067.98,-390.95C2059.88,-391.54 2051.81,-392.13 2043.81,-392.71"/>
<polygon fill="black" stroke="black" points="2043.78,-389.2 2034.06,-393.41 2044.29,-396.18 2043.78,-389.2"/>
</g>
<!-- module.db.aws_secretsmanager_secret_version.docdb_secret_value&#45;&gt;module.db.random_password.docdb_password -->
<g id="edge24" class="edge">
<title>module.db.aws_secretsmanager_secret_version.docdb_secret_value&#45;&gt;module.db.random_password.docdb_password</title>
<path fill="none" stroke="black" d="M2067.98,-363.05C2052.54,-361.93 2037.16,-360.81 2022.27,-359.73"/>
<polygon fill="black" stroke="black" points="2022.71,-356.26 2012.49,-359.02 2022.21,-363.24 2022.71,-356.26"/>
</g>
<!-- module.db.aws_security_group.documentdb_sg&#45;&gt;module.compute.aws_autoscaling_group.myasg -->
<g id="edge25" class="edge">
<title>module.db.aws_security_group.documentdb_sg&#45;&gt;module.compute.aws_autoscaling_group.myasg</title>
<path fill="none" stroke="black" d="M1759.49,-257.88C1729.87,-261.6 1698.43,-265.54 1669.2,-269.21"/>
<polygon fill="black" stroke="black" points="1669.11,-265.7 1659.62,-270.41 1669.98,-272.64 1669.11,-265.7"/>
</g>
<!-- module.db.aws_security_group.documentdb_sg&#45;&gt;module.compute.aws_instance.bastionhost -->
<g id="edge26" class="edge">
<title>module.db.aws_security_group.documentdb_sg&#45;&gt;module.compute.aws_instance.bastionhost</title>
<path fill="none" stroke="black" d="M1820.33,-223.52C1788.44,-215.47 1749.4,-206.99 1713.75,-203 1572.96,-187.26 1536.3,-192.87 1395,-203 1367.63,-204.96 1338.18,-208.52 1310.92,-212.42"/>
<polygon fill="black" stroke="black" points="1310.67,-208.91 1301.28,-213.82 1311.69,-215.84 1310.67,-208.91"/>
</g>
<!-- module.db.aws_security_group.documentdb_sg&#45;&gt;module.compute.aws_lb_listener.http -->
<g id="edge27" class="edge">
<title>module.db.aws_security_group.documentdb_sg&#45;&gt;module.compute.aws_lb_listener.http</title>
<path fill="none" stroke="black" d="M1759.49,-237.46C1717.9,-235.97 1672.72,-234.35 1635.11,-233"/>
<polygon fill="black" stroke="black" points="1635.33,-229.51 1625.21,-232.65 1635.08,-236.5 1635.33,-229.51"/>
</g>
<!-- module.iam.aws_iam_user.myiamuser -->
<g id="node18" class="node">
<title>module.iam.aws_iam_user.myiamuser</title>
<polygon fill="none" stroke="black" points="2353.12,-562 2169.88,-562 2169.88,-526 2353.12,-526 2353.12,-562"/>
<text text-anchor="middle" x="2261.5" y="-540.45" font-family="sans-serif" font-size="14.00">aws_iam_user.myiamuser</text>
</g>
<!-- module.iam.aws_iam_user_login_profile.myiamuser -->
<g id="node19" class="node">
<title>module.iam.aws_iam_user_login_profile.myiamuser</title>
<polygon fill="none" stroke="black" points="2792.12,-535 2519.62,-535 2519.62,-499 2792.12,-499 2792.12,-535"/>
<text text-anchor="middle" x="2655.88" y="-513.45" font-family="sans-serif" font-size="14.00">aws_iam_user_login_profile.myiamuser</text>
</g>
<!-- module.iam.aws_iam_user_login_profile.myiamuser&#45;&gt;module.iam.aws_iam_user.myiamuser -->
<g id="edge28" class="edge">
<title>module.iam.aws_iam_user_login_profile.myiamuser&#45;&gt;module.iam.aws_iam_user.myiamuser</title>
<path fill="none" stroke="black" d="M2519.29,-526.33C2468.64,-529.81 2412.02,-533.71 2364.86,-536.96"/>
<polygon fill="black" stroke="black" points="2364.64,-533.46 2354.9,-537.64 2365.12,-540.45 2364.64,-533.46"/>
</g>
<!-- module.iam.aws_iam_user_policy.combined_access -->
<g id="node20" class="node">
<title>module.iam.aws_iam_user_policy.combined_access</title>
<polygon fill="none" stroke="black" points="2790.25,-589 2521.5,-589 2521.5,-553 2790.25,-553 2790.25,-589"/>
<text text-anchor="middle" x="2655.88" y="-567.45" font-family="sans-serif" font-size="14.00">aws_iam_user_policy.combined_access</text>
</g>
<!-- module.iam.aws_iam_user_policy.combined_access&#45;&gt;module.iam.aws_iam_user.myiamuser -->
<g id="edge29" class="edge">
<title>module.iam.aws_iam_user_policy.combined_access&#45;&gt;module.iam.aws_iam_user.myiamuser</title>
<path fill="none" stroke="black" d="M2521.21,-561.8C2470.02,-558.28 2412.48,-554.32 2364.69,-551.03"/>
<polygon fill="black" stroke="black" points="2365.11,-547.55 2354.9,-550.36 2364.63,-554.54 2365.11,-547.55"/>
</g>
<!-- module.network.data.aws_availability_zones.available -->
<g id="node21" class="node">
<title>module.network.data.aws_availability_zones.available</title>
<polygon fill="none" stroke="black" points="458.25,-494 203.75,-494 203.75,-458 458.25,-458 458.25,-494"/>
<text text-anchor="middle" x="331" y="-472.45" font-family="sans-serif" font-size="14.00">data.aws_availability_zones.available</text>
</g>
<!-- module.network.aws_eip.nat_eip -->
<g id="node22" class="node">
<title>module.network.aws_eip.nat_eip</title>
<polygon fill="none" stroke="black" points="682.75,-602 563.25,-602 563.25,-566 682.75,-566 682.75,-602"/>
<text text-anchor="middle" x="623" y="-580.45" font-family="sans-serif" font-size="14.00">aws_eip.nat_eip</text>
</g>
<!-- module.network.aws_internet_gateway.module_igw -->
<g id="node23" class="node">
<title>module.network.aws_internet_gateway.module_igw</title>
<polygon fill="none" stroke="black" points="745.75,-548 500.25,-548 500.25,-512 745.75,-512 745.75,-548"/>
<text text-anchor="middle" x="623" y="-526.45" font-family="sans-serif" font-size="14.00">aws_internet_gateway.module_igw</text>
</g>
<!-- module.network.aws_internet_gateway.module_igw&#45;&gt;module.network.aws_vpc.myvpc -->
<g id="edge30" class="edge">
<title>module.network.aws_internet_gateway.module_igw&#45;&gt;module.network.aws_vpc.myvpc</title>
<path fill="none" stroke="black" d="M509.44,-511.64C504.13,-509.11 499.04,-506.24 494.25,-503 470.37,-486.82 482.11,-465.21 458.25,-449 441.2,-437.42 420.11,-430.67 400.08,-426.78"/>
<polygon fill="black" stroke="black" points="400.71,-423.34 390.26,-425.11 399.53,-430.24 400.71,-423.34"/>
</g>
<!-- module.network.aws_nat_gateway.module_natgw -->
<g id="node24" class="node">
<title>module.network.aws_nat_gateway.module_natgw</title>
<polygon fill="none" stroke="black" points="1018.25,-602 787.75,-602 787.75,-566 1018.25,-566 1018.25,-602"/>
<text text-anchor="middle" x="903" y="-580.45" font-family="sans-serif" font-size="14.00">aws_nat_gateway.module_natgw</text>
</g>
<!-- module.network.aws_nat_gateway.module_natgw&#45;&gt;module.network.aws_eip.nat_eip -->
<g id="edge31" class="edge">
<title>module.network.aws_nat_gateway.module_natgw&#45;&gt;module.network.aws_eip.nat_eip</title>
<path fill="none" stroke="black" d="M787.32,-584C755.77,-584 722.5,-584 694.27,-584"/>
<polygon fill="black" stroke="black" points="694.43,-580.5 684.43,-584 694.43,-587.5 694.43,-580.5"/>
</g>
<!-- module.network.aws_nat_gateway.module_natgw&#45;&gt;module.network.aws_internet_gateway.module_igw -->
<g id="edge32" class="edge">
<title>module.network.aws_nat_gateway.module_natgw&#45;&gt;module.network.aws_internet_gateway.module_igw</title>
<path fill="none" stroke="black" d="M807.11,-565.57C782.31,-560.75 755.42,-555.53 730.07,-550.6"/>
<polygon fill="black" stroke="black" points="730.91,-547.2 720.42,-548.73 729.57,-554.07 730.91,-547.2"/>
</g>
<!-- module.network.aws_nat_gateway.module_natgw&#45;&gt;module.network.aws_subnet.publicsubnet -->
<g id="edge33" class="edge">
<title>module.network.aws_nat_gateway.module_natgw&#45;&gt;module.network.aws_subnet.publicsubnet</title>
<path fill="none" stroke="black" d="M800.89,-565.52C796.26,-563.02 791.85,-560.2 787.75,-557 766.43,-540.38 781.36,-519.24 759.75,-503 749.72,-495.46 738.14,-489.88 726.05,-485.76"/>
<polygon fill="black" stroke="black" points="727.36,-482.5 716.77,-482.95 725.32,-489.2 727.36,-482.5"/>
</g>
<!-- module.network.aws_route_table.private_rt -->
<g id="node25" class="node">
<title>module.network.aws_route_table.private_rt</title>
<polygon fill="none" stroke="black" points="1301.25,-597 1112,-597 1112,-561 1301.25,-561 1301.25,-597"/>
<text text-anchor="middle" x="1206.62" y="-575.45" font-family="sans-serif" font-size="14.00">aws_route_table.private_rt</text>
</g>
<!-- module.network.aws_route_table.private_rt&#45;&gt;module.network.aws_nat_gateway.module_natgw -->
<g id="edge34" class="edge">
<title>module.network.aws_route_table.private_rt&#45;&gt;module.network.aws_nat_gateway.module_natgw</title>
<path fill="none" stroke="black" d="M1111.84,-580.55C1085.93,-580.98 1057.38,-581.46 1029.96,-581.91"/>
<polygon fill="black" stroke="black" points="1030.15,-578.41 1020.21,-582.07 1030.27,-585.41 1030.15,-578.41"/>
</g>
<!-- module.network.aws_route_table.public_rt -->
<g id="node26" class="node">
<title>module.network.aws_route_table.public_rt</title>
<polygon fill="none" stroke="black" points="994.62,-548 811.38,-548 811.38,-512 994.62,-512 994.62,-548"/>
<text text-anchor="middle" x="903" y="-526.45" font-family="sans-serif" font-size="14.00">aws_route_table.public_rt</text>
</g>
<!-- module.network.aws_route_table.public_rt&#45;&gt;module.network.aws_internet_gateway.module_igw -->
<g id="edge35" class="edge">
<title>module.network.aws_route_table.public_rt&#45;&gt;module.network.aws_internet_gateway.module_igw</title>
<path fill="none" stroke="black" d="M810.97,-530C793.79,-530 775.5,-530 757.34,-530"/>
<polygon fill="black" stroke="black" points="757.57,-526.5 747.57,-530 757.57,-533.5 757.57,-526.5"/>
</g>
<!-- module.network.aws_route_table_association.private_rt_assoc -->
<g id="node27" class="node">
<title>module.network.aws_route_table_association.private_rt_assoc</title>
<polygon fill="none" stroke="black" points="1705.75,-545 1395,-545 1395,-509 1705.75,-509 1705.75,-545"/>
<text text-anchor="middle" x="1550.38" y="-523.45" font-family="sans-serif" font-size="14.00">aws_route_table_association.private_rt_assoc</text>
</g>
<!-- module.network.aws_route_table_association.private_rt_assoc&#45;&gt;module.network.aws_route_table.private_rt -->
<g id="edge36" class="edge">
<title>module.network.aws_route_table_association.private_rt_assoc&#45;&gt;module.network.aws_route_table.private_rt</title>
<path fill="none" stroke="black" d="M1427.92,-545.48C1390.28,-551.21 1349.14,-557.47 1312.71,-563.01"/>
<polygon fill="black" stroke="black" points="1312.41,-559.51 1303.06,-564.48 1313.47,-566.44 1312.41,-559.51"/>
</g>
<!-- module.network.aws_route_table_association.private_rt_assoc&#45;&gt;module.network.aws_subnet.privatesubnet -->
<g id="edge37" class="edge">
<title>module.network.aws_route_table_association.private_rt_assoc&#45;&gt;module.network.aws_subnet.privatesubnet</title>
<path fill="none" stroke="black" d="M1458.19,-508.51C1426.86,-502.74 1391.5,-496.89 1359,-493 1106.43,-462.81 1037.72,-505.06 787.75,-458 774.9,-455.58 772.4,-452.28 759.75,-449 749.93,-446.45 739.65,-444.01 729.34,-441.71"/>
<polygon fill="black" stroke="black" points="730.15,-438.31 719.64,-439.59 728.66,-445.15 730.15,-438.31"/>
</g>
<!-- module.network.aws_route_table_association.public_rt_assoc -->
<g id="node28" class="node">
<title>module.network.aws_route_table_association.public_rt_assoc</title>
<polygon fill="none" stroke="black" points="1359,-538 1054.25,-538 1054.25,-502 1359,-502 1359,-538"/>
<text text-anchor="middle" x="1206.62" y="-516.45" font-family="sans-serif" font-size="14.00">aws_route_table_association.public_rt_assoc</text>
</g>
<!-- module.network.aws_route_table_association.public_rt_assoc&#45;&gt;module.network.aws_route_table.public_rt -->
<g id="edge38" class="edge">
<title>module.network.aws_route_table_association.public_rt_assoc&#45;&gt;module.network.aws_route_table.public_rt</title>
<path fill="none" stroke="black" d="M1053.93,-525.03C1037.64,-525.57 1021.36,-526.11 1005.86,-526.62"/>
<polygon fill="black" stroke="black" points="1006.11,-523.11 996.23,-526.94 1006.34,-530.11 1006.11,-523.11"/>
</g>
<!-- module.network.aws_route_table_association.public_rt_assoc&#45;&gt;module.network.aws_subnet.publicsubnet -->
<g id="edge39" class="edge">
<title>module.network.aws_route_table_association.public_rt_assoc&#45;&gt;module.network.aws_subnet.publicsubnet</title>
<path fill="none" stroke="black" d="M1053.79,-505.94C1041.77,-504.91 1029.81,-503.92 1018.25,-503 919.13,-495.11 805.88,-487.5 726.26,-482.38"/>
<polygon fill="black" stroke="black" points="726.97,-478.92 716.77,-481.77 726.53,-485.91 726.97,-478.92"/>
</g>
<!-- module.network.aws_subnet.privatesubnet&#45;&gt;module.network.data.aws_availability_zones.available -->
<g id="edge40" class="edge">
<title>module.network.aws_subnet.privatesubnet&#45;&gt;module.network.data.aws_availability_zones.available</title>
<path fill="none" stroke="black" d="M527.85,-439.53C500.54,-444.62 470.49,-450.21 442.29,-455.46"/>
<polygon fill="black" stroke="black" points="441.85,-451.99 432.66,-457.26 443.13,-458.87 441.85,-451.99"/>
</g>
<!-- module.network.aws_subnet.privatesubnet&#45;&gt;module.network.aws_vpc.myvpc -->
<g id="edge41" class="edge">
<title>module.network.aws_subnet.privatesubnet&#45;&gt;module.network.aws_vpc.myvpc</title>
<path fill="none" stroke="black" d="M527.85,-422C486.33,-422 438.44,-422 400.41,-422"/>
<polygon fill="black" stroke="black" points="400.46,-418.5 390.46,-422 400.46,-425.5 400.46,-418.5"/>
</g>
<!-- module.network.aws_subnet.publicsubnet&#45;&gt;module.network.data.aws_availability_zones.available -->
<g id="edge42" class="edge">
<title>module.network.aws_subnet.publicsubnet&#45;&gt;module.network.data.aws_availability_zones.available</title>
<path fill="none" stroke="black" d="M530.64,-476C511.38,-476 490.65,-476 470.1,-476"/>
<polygon fill="black" stroke="black" points="470.23,-472.5 460.23,-476 470.23,-479.5 470.23,-472.5"/>
</g>
<!-- module.network.aws_subnet.publicsubnet&#45;&gt;module.network.aws_vpc.myvpc -->
<g id="edge43" class="edge">
<title>module.network.aws_subnet.publicsubnet&#45;&gt;module.network.aws_vpc.myvpc</title>
<path fill="none" stroke="black" d="M530.64,-458.99C488.33,-451.11 438.93,-441.91 399.97,-434.66"/>
<polygon fill="black" stroke="black" points="400.72,-431.24 390.25,-432.85 399.44,-438.12 400.72,-431.24"/>
</g>
<!-- module.s3.aws_s3_bucket.logsbucket -->
<g id="node32" class="node">
<title>module.s3.aws_s3_bucket.logsbucket</title>
<polygon fill="none" stroke="black" points="425.62,-52 236.38,-52 236.38,-16 425.62,-16 425.62,-52"/>
<text text-anchor="middle" x="331" y="-30.45" font-family="sans-serif" font-size="14.00">aws_s3_bucket.logsbucket</text>
</g>
<!-- module.s3.random_id.bucket_id -->
<g id="node34" class="node">
<title>module.s3.random_id.bucket_id</title>
<polygon fill="none" stroke="black" points="167.75,-52 16,-52 16,-16 167.75,-16 167.75,-52"/>
<text text-anchor="middle" x="91.88" y="-30.45" font-family="sans-serif" font-size="14.00">random_id.bucket_id</text>
</g>
<!-- module.s3.aws_s3_bucket.logsbucket&#45;&gt;module.s3.random_id.bucket_id -->
<g id="edge44" class="edge">
<title>module.s3.aws_s3_bucket.logsbucket&#45;&gt;module.s3.random_id.bucket_id</title>
<path fill="none" stroke="black" d="M235.94,-34C217.31,-34 197.83,-34 179.46,-34"/>
<polygon fill="black" stroke="black" points="179.7,-30.5 169.7,-34 179.7,-37.5 179.7,-30.5"/>
</g>
<!-- module.s3.aws_s3_bucket_policy.alb_logs_policy&#45;&gt;module.s3.aws_s3_bucket.logsbucket -->
<g id="edge45" class="edge">
<title>module.s3.aws_s3_bucket_policy.alb_logs_policy&#45;&gt;module.s3.aws_s3_bucket.logsbucket</title>
<path fill="none" stroke="black" d="M493.96,-34C474.98,-34 455.62,-34 437.18,-34"/>
<polygon fill="black" stroke="black" points="437.35,-30.5 427.35,-34 437.35,-37.5 437.35,-30.5"/>
</g>
</g>
</svg>
