<?xml version="1.0" encoding="UTF-8" standalone="no"?>
<!DOCTYPE svg PUBLIC "-//W3C//DTD SVG 1.1//EN"
 "http://www.w3.org/Graphics/SVG/1.1/DTD/svg11.dtd">
<!-- Generated by graphviz version 12.2.1 (20241206.2353)
 -->
<!-- Title: G Pages: 1 -->
<svg width="1650pt" height="888pt"
 viewBox="0.00 0.00 1650.00 888.00" xmlns="http://www.w3.org/2000/svg" xmlns:xlink="http://www.w3.org/1999/xlink">
<g id="graph0" class="graph" transform="scale(1 1) rotate(0) translate(4 884)">
<title>G</title>
<polygon fill="white" stroke="none" points="-4,4 -4,-884 1646,-884 1646,4 -4,4"/>
<g id="clust1" class="cluster">
<title>cluster_module.compute</title>
<polygon fill="none" stroke="black" points="322.12,-8 322.12,-250 1287.25,-250 1287.25,-8 322.12,-8"/>
<text text-anchor="middle" x="804.69" y="-232.7" font-family="sans-serif" font-size="14.00">module.compute</text>
</g>
<g id="clust2" class="cluster">
<title>cluster_module.db</title>
<polygon fill="none" stroke="black" points="580,-258 580,-392 1197.62,-392 1197.62,-258 580,-258"/>
<text text-anchor="middle" x="888.81" y="-374.7" font-family="sans-serif" font-size="14.00">module.db</text>
</g>
<g id="clust3" class="cluster">
<title>cluster_module.iam</title>
<polygon fill="none" stroke="black" points="991.62,-650 991.62,-784 1614.88,-784 1614.88,-650 991.62,-650"/>
<text text-anchor="middle" x="1303.25" y="-766.7" font-family="sans-serif" font-size="14.00">module.iam</text>
</g>
<g id="clust4" class="cluster">
<title>cluster_module.network</title>
<polygon fill="none" stroke="black" points="8,-400 8,-642 1634,-642 1634,-400 8,-400"/>
<text text-anchor="middle" x="821" y="-624.7" font-family="sans-serif" font-size="14.00">module.network</text>
</g>
<g id="clust5" class="cluster">
<title>cluster_module.s3</title>
<polygon fill="none" stroke="black" points="1007.38,-792 1007.38,-872 1569.88,-872 1569.88,-792 1007.38,-792"/>
<text text-anchor="middle" x="1288.62" y="-854.7" font-family="sans-serif" font-size="14.00">module.s3</text>
</g>
<!-- module.compute.data.aws_ami.amazon_linux -->
<g id="node1" class="node">
<title>module.compute.data.aws_ami.amazon_linux</title>
<polygon fill="none" stroke="black" points="528.38,-160 330.12,-160 330.12,-124 528.38,-124 528.38,-160"/>
<text text-anchor="middle" x="429.25" y="-138.45" font-family="sans-serif" font-size="14.00">data.aws_ami.amazon_linux</text>
</g>
<!-- module.compute.aws_instance.myinstance -->
<g id="node2" class="node">
<title>module.compute.aws_instance.myinstance</title>
<polygon fill="none" stroke="black" points="819.62,-160 635.62,-160 635.62,-124 819.62,-124 819.62,-160"/>
<text text-anchor="middle" x="727.62" y="-138.45" font-family="sans-serif" font-size="14.00">aws_instance.myinstance</text>
</g>
<!-- module.compute.aws_instance.myinstance&#45;&gt;module.compute.data.aws_ami.amazon_linux -->
<g id="edge1" class="edge">
<title>module.compute.aws_instance.myinstance&#45;&gt;module.compute.data.aws_ami.amazon_linux</title>
<path fill="none" stroke="black" d="M635.28,-142C605.22,-142 571.47,-142 540.16,-142"/>
<polygon fill="black" stroke="black" points="540.27,-138.5 530.27,-142 540.27,-145.5 540.27,-138.5"/>
</g>
<!-- module.compute.aws_security_group.web_sg -->
<g id="node8" class="node">
<title>module.compute.aws_security_group.web_sg</title>
<polygon fill="none" stroke="black" points="528.38,-214 330.12,-214 330.12,-178 528.38,-178 528.38,-214"/>
<text text-anchor="middle" x="429.25" y="-192.45" font-family="sans-serif" font-size="14.00">aws_security_group.web_sg</text>
</g>
<!-- module.compute.aws_instance.myinstance&#45;&gt;module.compute.aws_security_group.web_sg -->
<g id="edge2" class="edge">
<title>module.compute.aws_instance.myinstance&#45;&gt;module.compute.aws_security_group.web_sg</title>
<path fill="none" stroke="black" d="M635.28,-158.64C605.08,-164.14 571.17,-170.32 539.75,-176.05"/>
<polygon fill="black" stroke="black" points="539.45,-172.55 530.24,-177.78 540.71,-179.43 539.45,-172.55"/>
</g>
<!-- module.network.aws_subnet.publicsubnet -->
<g id="node24" class="node">
<title>module.network.aws_subnet.publicsubnet</title>
<polygon fill="none" stroke="black" points="521.25,-444 337.25,-444 337.25,-408 521.25,-408 521.25,-444"/>
<text text-anchor="middle" x="429.25" y="-422.45" font-family="sans-serif" font-size="14.00">aws_subnet.publicsubnet</text>
</g>
<!-- module.compute.aws_instance.myinstance&#45;&gt;module.network.aws_subnet.publicsubnet -->
<g id="edge3" class="edge">
<title>module.compute.aws_instance.myinstance&#45;&gt;module.network.aws_subnet.publicsubnet</title>
<path fill="none" stroke="black" d="M635.37,-143.6C615.27,-147.84 595.41,-155.56 580,-169 550.03,-195.15 569.91,-218.49 552,-254 524.14,-309.24 479.96,-366.55 453.18,-399.09"/>
<polygon fill="black" stroke="black" points="450.79,-396.5 447.08,-406.43 456.17,-400.98 450.79,-396.5"/>
</g>
<!-- module.compute.aws_lb.weblb -->
<g id="node3" class="node">
<title>module.compute.aws_lb.weblb</title>
<polygon fill="none" stroke="black" points="779.12,-214 676.12,-214 676.12,-178 779.12,-178 779.12,-214"/>
<text text-anchor="middle" x="727.62" y="-192.45" font-family="sans-serif" font-size="14.00">aws_lb.weblb</text>
</g>
<!-- module.compute.aws_lb.weblb&#45;&gt;module.compute.aws_security_group.web_sg -->
<g id="edge4" class="edge">
<title>module.compute.aws_lb.weblb&#45;&gt;module.compute.aws_security_group.web_sg</title>
<path fill="none" stroke="black" d="M675.68,-196C638.45,-196 586.55,-196 540.07,-196"/>
<polygon fill="black" stroke="black" points="540.21,-192.5 530.21,-196 540.21,-199.5 540.21,-192.5"/>
</g>
<!-- module.compute.aws_lb.weblb&#45;&gt;module.network.aws_subnet.publicsubnet -->
<g id="edge5" class="edge">
<title>module.compute.aws_lb.weblb&#45;&gt;module.network.aws_subnet.publicsubnet</title>
<path fill="none" stroke="black" d="M675.8,-209.5C646.12,-218.93 608.94,-233.53 580,-254 522.88,-294.4 473.26,-360.98 448.01,-398.35"/>
<polygon fill="black" stroke="black" points="445.3,-396.1 442.67,-406.37 451.13,-399.98 445.3,-396.1"/>
</g>
<!-- module.compute.aws_lb_listener.http -->
<g id="node4" class="node">
<title>module.compute.aws_lb_listener.http</title>
<polygon fill="none" stroke="black" points="1164.12,-187 1018.38,-187 1018.38,-151 1164.12,-151 1164.12,-187"/>
<text text-anchor="middle" x="1091.25" y="-165.45" font-family="sans-serif" font-size="14.00">aws_lb_listener.http</text>
</g>
<!-- module.compute.aws_lb_listener.http&#45;&gt;module.compute.aws_lb.weblb -->
<g id="edge6" class="edge">
<title>module.compute.aws_lb_listener.http&#45;&gt;module.compute.aws_lb.weblb</title>
<path fill="none" stroke="black" d="M1017.94,-174.4C951.48,-179.36 853.99,-186.64 790.91,-191.35"/>
<polygon fill="black" stroke="black" points="790.76,-187.85 781.05,-192.09 791.29,-194.83 790.76,-187.85"/>
</g>
<!-- module.compute.aws_lb_target_group.mytg -->
<g id="node5" class="node">
<title>module.compute.aws_lb_target_group.mytg</title>
<polygon fill="none" stroke="black" points="821.88,-52 633.38,-52 633.38,-16 821.88,-16 821.88,-52"/>
<text text-anchor="middle" x="727.62" y="-30.45" font-family="sans-serif" font-size="14.00">aws_lb_target_group.mytg</text>
</g>
<!-- module.compute.aws_lb_listener.http&#45;&gt;module.compute.aws_lb_target_group.mytg -->
<g id="edge7" class="edge">
<title>module.compute.aws_lb_listener.http&#45;&gt;module.compute.aws_lb_target_group.mytg</title>
<path fill="none" stroke="black" d="M1039.09,-150.59C1000.6,-135.86 947.15,-113.5 903.25,-88 885.95,-77.96 885.53,-69.12 867.25,-61 856.44,-56.2 844.78,-52.25 832.98,-49"/>
<polygon fill="black" stroke="black" points="834.15,-45.69 823.59,-46.59 832.4,-52.47 834.15,-45.69"/>
</g>
<!-- module.network.aws_vpc.myvpc -->
<g id="node25" class="node">
<title>module.network.aws_vpc.myvpc</title>
<polygon fill="none" stroke="black" points="200.75,-444 85.75,-444 85.75,-408 200.75,-408 200.75,-444"/>
<text text-anchor="middle" x="143.25" y="-422.45" font-family="sans-serif" font-size="14.00">aws_vpc.myvpc</text>
</g>
<!-- module.compute.aws_lb_target_group.mytg&#45;&gt;module.network.aws_vpc.myvpc -->
<g id="edge8" class="edge">
<title>module.compute.aws_lb_target_group.mytg&#45;&gt;module.network.aws_vpc.myvpc</title>
<path fill="none" stroke="black" d="M632.98,-29.59C541.1,-30.04 401.36,-44.01 306.5,-115 209.85,-187.33 165.6,-334.11 150.54,-396.68"/>
<polygon fill="black" stroke="black" points="147.18,-395.68 148.33,-406.21 154,-397.26 147.18,-395.68"/>
</g>
<!-- module.compute.aws_lb_target_group_attachment.instance_attachment -->
<g id="node6" class="node">
<title>module.compute.aws_lb_target_group_attachment.instance_attachment</title>
<polygon fill="none" stroke="black" points="1279.25,-79 903.25,-79 903.25,-43 1279.25,-43 1279.25,-79"/>
<text text-anchor="middle" x="1091.25" y="-57.45" font-family="sans-serif" font-size="14.00">aws_lb_target_group_attachment.instance_attachment</text>
</g>
<!-- module.compute.aws_lb_target_group_attachment.instance_attachment&#45;&gt;module.compute.aws_instance.myinstance -->
<g id="edge9" class="edge">
<title>module.compute.aws_lb_target_group_attachment.instance_attachment&#45;&gt;module.compute.aws_instance.myinstance</title>
<path fill="none" stroke="black" d="M1017.63,-79.46C974.12,-90.31 917.65,-104 867.25,-115 855.6,-117.54 843.38,-120.09 831.22,-122.56"/>
<polygon fill="black" stroke="black" points="830.69,-119.09 821.57,-124.5 832.07,-125.96 830.69,-119.09"/>
</g>
<!-- module.compute.aws_lb_target_group_attachment.instance_attachment&#45;&gt;module.compute.aws_lb_target_group.mytg -->
<g id="edge10" class="edge">
<title>module.compute.aws_lb_target_group_attachment.instance_attachment&#45;&gt;module.compute.aws_lb_target_group.mytg</title>
<path fill="none" stroke="black" d="M902.82,-47.01C878.92,-45.22 855.18,-43.45 833.26,-41.81"/>
<polygon fill="black" stroke="black" points="833.72,-38.34 823.49,-41.08 833.2,-45.32 833.72,-38.34"/>
</g>
<!-- module.compute.aws_security_group.lb_sg -->
<g id="node7" class="node">
<title>module.compute.aws_security_group.lb_sg</title>
<polygon fill="none" stroke="black" points="818.88,-106 636.38,-106 636.38,-70 818.88,-70 818.88,-106"/>
<text text-anchor="middle" x="727.62" y="-84.45" font-family="sans-serif" font-size="14.00">aws_security_group.lb_sg</text>
</g>
<!-- module.compute.aws_security_group.lb_sg&#45;&gt;module.compute.aws_security_group.web_sg -->
<g id="edge11" class="edge">
<title>module.compute.aws_security_group.lb_sg&#45;&gt;module.compute.aws_security_group.web_sg</title>
<path fill="none" stroke="black" d="M636.08,-91.58C616.18,-95.79 596.23,-102.99 580,-115 558.27,-131.09 573.43,-152.52 552,-169 547.93,-172.13 543.57,-174.91 539.01,-177.38"/>
<polygon fill="black" stroke="black" points="537.61,-174.17 530.1,-181.65 540.63,-180.48 537.61,-174.17"/>
</g>
<!-- module.compute.aws_security_group.web_sg&#45;&gt;module.network.aws_vpc.myvpc -->
<g id="edge12" class="edge">
<title>module.compute.aws_security_group.web_sg&#45;&gt;module.network.aws_vpc.myvpc</title>
<path fill="none" stroke="black" d="M405.49,-214.43C354.89,-255.41 233,-354.13 175.4,-400.78"/>
<polygon fill="black" stroke="black" points="173.47,-397.83 167.9,-406.85 177.88,-403.27 173.47,-397.83"/>
</g>
<!-- module.db.aws_db_instance.moduledb -->
<g id="node9" class="node">
<title>module.db.aws_db_instance.moduledb</title>
<polygon fill="none" stroke="black" points="1189.62,-329 992.88,-329 992.88,-293 1189.62,-293 1189.62,-329"/>
<text text-anchor="middle" x="1091.25" y="-307.45" font-family="sans-serif" font-size="14.00">aws_db_instance.moduledb</text>
</g>
<!-- module.db.aws_db_subnet_group.db_subnet_group -->
<g id="node10" class="node">
<title>module.db.aws_db_subnet_group.db_subnet_group</title>
<polygon fill="none" stroke="black" points="867.25,-356 588,-356 588,-320 867.25,-320 867.25,-356"/>
<text text-anchor="middle" x="727.62" y="-334.45" font-family="sans-serif" font-size="14.00">aws_db_subnet_group.db_subnet_group</text>
</g>
<!-- module.db.aws_db_instance.moduledb&#45;&gt;module.db.aws_db_subnet_group.db_subnet_group -->
<g id="edge13" class="edge">
<title>module.db.aws_db_instance.moduledb&#45;&gt;module.db.aws_db_subnet_group.db_subnet_group</title>
<path fill="none" stroke="black" d="M992.39,-318.31C957.45,-320.91 917.24,-323.92 878.92,-326.78"/>
<polygon fill="black" stroke="black" points="878.85,-323.27 869.14,-327.51 879.37,-330.25 878.85,-323.27"/>
</g>
<!-- module.db.aws_security_group.db_sg -->
<g id="node11" class="node">
<title>module.db.aws_security_group.db_sg</title>
<polygon fill="none" stroke="black" points="821.12,-302 634.12,-302 634.12,-266 821.12,-266 821.12,-302"/>
<text text-anchor="middle" x="727.62" y="-280.45" font-family="sans-serif" font-size="14.00">aws_security_group.db_sg</text>
</g>
<!-- module.db.aws_db_instance.moduledb&#45;&gt;module.db.aws_security_group.db_sg -->
<g id="edge14" class="edge">
<title>module.db.aws_db_instance.moduledb&#45;&gt;module.db.aws_security_group.db_sg</title>
<path fill="none" stroke="black" d="M992.39,-303.69C942.99,-300.01 883.06,-295.53 832.81,-291.78"/>
<polygon fill="black" stroke="black" points="833.32,-288.31 823.09,-291.05 832.8,-295.29 833.32,-288.31"/>
</g>
<!-- module.network.aws_subnet.privatesubnet -->
<g id="node23" class="node">
<title>module.network.aws_subnet.privatesubnet</title>
<polygon fill="none" stroke="black" points="524.25,-606 334.25,-606 334.25,-570 524.25,-570 524.25,-606"/>
<text text-anchor="middle" x="429.25" y="-584.45" font-family="sans-serif" font-size="14.00">aws_subnet.privatesubnet</text>
</g>
<!-- module.db.aws_db_subnet_group.db_subnet_group&#45;&gt;module.network.aws_subnet.privatesubnet -->
<g id="edge15" class="edge">
<title>module.db.aws_db_subnet_group.db_subnet_group&#45;&gt;module.network.aws_subnet.privatesubnet</title>
<path fill="none" stroke="black" d="M638.52,-356.42C616.48,-365.02 594.91,-377.6 580,-396 533.17,-453.79 603.26,-507.1 552,-561 546.96,-566.3 541.12,-570.67 534.8,-574.27"/>
<polygon fill="black" stroke="black" points="533.3,-571.11 525.85,-578.64 536.37,-577.4 533.3,-571.11"/>
</g>
<!-- module.db.aws_security_group.db_sg&#45;&gt;module.compute.aws_security_group.web_sg -->
<g id="edge16" class="edge">
<title>module.db.aws_security_group.db_sg&#45;&gt;module.compute.aws_security_group.web_sg</title>
<path fill="none" stroke="black" d="M633.75,-267.45C615.78,-263.56 597.2,-259.05 580,-254 547.03,-244.32 511.09,-230.51 482.69,-218.8"/>
<polygon fill="black" stroke="black" points="484.17,-215.63 473.59,-215.01 481.48,-222.09 484.17,-215.63"/>
</g>
<!-- module.iam.aws_iam_user.myiamuser -->
<g id="node12" class="node">
<title>module.iam.aws_iam_user.myiamuser</title>
<polygon fill="none" stroke="black" points="1182.88,-721 999.62,-721 999.62,-685 1182.88,-685 1182.88,-721"/>
<text text-anchor="middle" x="1091.25" y="-699.45" font-family="sans-serif" font-size="14.00">aws_iam_user.myiamuser</text>
</g>
<!-- module.iam.aws_iam_user_login_profile.myiamuser -->
<g id="node13" class="node">
<title>module.iam.aws_iam_user_login_profile.myiamuser</title>
<polygon fill="none" stroke="black" points="1606.88,-694 1334.38,-694 1334.38,-658 1606.88,-658 1606.88,-694"/>
<text text-anchor="middle" x="1470.62" y="-672.45" font-family="sans-serif" font-size="14.00">aws_iam_user_login_profile.myiamuser</text>
</g>
<!-- module.iam.aws_iam_user_login_profile.myiamuser&#45;&gt;module.iam.aws_iam_user.myiamuser -->
<g id="edge17" class="edge">
<title>module.iam.aws_iam_user_login_profile.myiamuser&#45;&gt;module.iam.aws_iam_user.myiamuser</title>
<path fill="none" stroke="black" d="M1333.92,-685.71C1287.95,-689 1237.41,-692.61 1194.48,-695.69"/>
<polygon fill="black" stroke="black" points="1194.4,-692.18 1184.68,-696.39 1194.9,-699.16 1194.4,-692.18"/>
</g>
<!-- module.iam.aws_iam_user_policy.combined_access -->
<g id="node14" class="node">
<title>module.iam.aws_iam_user_policy.combined_access</title>
<polygon fill="none" stroke="black" points="1605,-748 1336.25,-748 1336.25,-712 1605,-712 1605,-748"/>
<text text-anchor="middle" x="1470.62" y="-726.45" font-family="sans-serif" font-size="14.00">aws_iam_user_policy.combined_access</text>
</g>
<!-- module.iam.aws_iam_user_policy.combined_access&#45;&gt;module.iam.aws_iam_user.myiamuser -->
<g id="edge18" class="edge">
<title>module.iam.aws_iam_user_policy.combined_access&#45;&gt;module.iam.aws_iam_user.myiamuser</title>
<path fill="none" stroke="black" d="M1335.78,-720.42C1289.38,-717.1 1238.13,-713.44 1194.67,-710.33"/>
<polygon fill="black" stroke="black" points="1194.94,-706.84 1184.72,-709.62 1194.44,-713.82 1194.94,-706.84"/>
</g>
<!-- module.network.data.aws_availability_zones.available -->
<g id="node15" class="node">
<title>module.network.data.aws_availability_zones.available</title>
<polygon fill="none" stroke="black" points="270.5,-552 16,-552 16,-516 270.5,-516 270.5,-552"/>
<text text-anchor="middle" x="143.25" y="-530.45" font-family="sans-serif" font-size="14.00">data.aws_availability_zones.available</text>
</g>
<!-- module.network.aws_eip.nat_eip -->
<g id="node16" class="node">
<title>module.network.aws_eip.nat_eip</title>
<polygon fill="none" stroke="black" points="489,-552 369.5,-552 369.5,-516 489,-516 489,-552"/>
<text text-anchor="middle" x="429.25" y="-530.45" font-family="sans-serif" font-size="14.00">aws_eip.nat_eip</text>
</g>
<!-- module.network.aws_internet_gateway.module_igw -->
<g id="node17" class="node">
<title>module.network.aws_internet_gateway.module_igw</title>
<polygon fill="none" stroke="black" points="552,-498 306.5,-498 306.5,-462 552,-462 552,-498"/>
<text text-anchor="middle" x="429.25" y="-476.45" font-family="sans-serif" font-size="14.00">aws_internet_gateway.module_igw</text>
</g>
<!-- module.network.aws_internet_gateway.module_igw&#45;&gt;module.network.aws_vpc.myvpc -->
<g id="edge19" class="edge">
<title>module.network.aws_internet_gateway.module_igw&#45;&gt;module.network.aws_vpc.myvpc</title>
<path fill="none" stroke="black" d="M331.31,-461.57C292.16,-454.12 247.91,-445.71 212.28,-438.94"/>
<polygon fill="black" stroke="black" points="213,-435.51 202.52,-437.08 211.69,-442.39 213,-435.51"/>
</g>
<!-- module.network.aws_nat_gateway.module_natgw -->
<g id="node18" class="node">
<title>module.network.aws_nat_gateway.module_natgw</title>
<polygon fill="none" stroke="black" points="842.88,-549 612.38,-549 612.38,-513 842.88,-513 842.88,-549"/>
<text text-anchor="middle" x="727.62" y="-527.45" font-family="sans-serif" font-size="14.00">aws_nat_gateway.module_natgw</text>
</g>
<!-- module.network.aws_nat_gateway.module_natgw&#45;&gt;module.network.aws_eip.nat_eip -->
<g id="edge20" class="edge">
<title>module.network.aws_nat_gateway.module_natgw&#45;&gt;module.network.aws_eip.nat_eip</title>
<path fill="none" stroke="black" d="M612.04,-532.16C574.59,-532.54 534.12,-532.95 500.89,-533.28"/>
<polygon fill="black" stroke="black" points="500.94,-529.78 490.97,-533.39 501.01,-536.78 500.94,-529.78"/>
</g>
<!-- module.network.aws_nat_gateway.module_natgw&#45;&gt;module.network.aws_internet_gateway.module_igw -->
<g id="edge21" class="edge">
<title>module.network.aws_nat_gateway.module_natgw&#45;&gt;module.network.aws_internet_gateway.module_igw</title>
<path fill="none" stroke="black" d="M619.21,-512.52C596.18,-508.55 571.73,-504.35 548.33,-500.32"/>
<polygon fill="black" stroke="black" points="549.24,-496.92 538.79,-498.68 548.05,-503.82 549.24,-496.92"/>
</g>
<!-- module.network.aws_nat_gateway.module_natgw&#45;&gt;module.network.aws_subnet.publicsubnet -->
<g id="edge22" class="edge">
<title>module.network.aws_nat_gateway.module_natgw&#45;&gt;module.network.aws_subnet.publicsubnet</title>
<path fill="none" stroke="black" d="M612.15,-516.7C600.7,-512.42 589.73,-506.96 580,-500 560.22,-485.85 571.71,-467.24 552,-453 545.87,-448.57 539.14,-444.84 532.1,-441.72"/>
<polygon fill="black" stroke="black" points="533.58,-438.54 523,-438.1 531,-445.04 533.58,-438.54"/>
</g>
<!-- module.network.aws_route_table.private_rt -->
<g id="node19" class="node">
<title>module.network.aws_route_table.private_rt</title>
<polygon fill="none" stroke="black" points="1185.88,-550 996.62,-550 996.62,-514 1185.88,-514 1185.88,-550"/>
<text text-anchor="middle" x="1091.25" y="-528.45" font-family="sans-serif" font-size="14.00">aws_route_table.private_rt</text>
</g>
<!-- module.network.aws_route_table.private_rt&#45;&gt;module.network.aws_nat_gateway.module_natgw -->
<g id="edge23" class="edge">
<title>module.network.aws_route_table.private_rt&#45;&gt;module.network.aws_nat_gateway.module_natgw</title>
<path fill="none" stroke="black" d="M996.18,-531.74C952.97,-531.62 901.1,-531.48 854.58,-531.35"/>
<polygon fill="black" stroke="black" points="854.71,-527.85 844.7,-531.32 854.69,-534.85 854.71,-527.85"/>
</g>
<!-- module.network.aws_route_table.public_rt -->
<g id="node20" class="node">
<title>module.network.aws_route_table.public_rt</title>
<polygon fill="none" stroke="black" points="819.25,-491 636,-491 636,-455 819.25,-455 819.25,-491"/>
<text text-anchor="middle" x="727.62" y="-469.45" font-family="sans-serif" font-size="14.00">aws_route_table.public_rt</text>
</g>
<!-- module.network.aws_route_table.public_rt&#45;&gt;module.network.aws_internet_gateway.module_igw -->
<g id="edge24" class="edge">
<title>module.network.aws_route_table.public_rt&#45;&gt;module.network.aws_internet_gateway.module_igw</title>
<path fill="none" stroke="black" d="M635.69,-475.15C612.99,-475.68 588.18,-476.27 563.9,-476.84"/>
<polygon fill="black" stroke="black" points="563.83,-473.34 553.92,-477.08 564,-480.34 563.83,-473.34"/>
</g>
<!-- module.network.aws_route_table_association.private_rt_assoc -->
<g id="node21" class="node">
<title>module.network.aws_route_table_association.private_rt_assoc</title>
<polygon fill="none" stroke="black" points="1626,-577 1315.25,-577 1315.25,-541 1626,-541 1626,-577"/>
<text text-anchor="middle" x="1470.62" y="-555.45" font-family="sans-serif" font-size="14.00">aws_route_table_association.private_rt_assoc</text>
</g>
<!-- module.network.aws_route_table_association.private_rt_assoc&#45;&gt;module.network.aws_route_table.private_rt -->
<g id="edge25" class="edge">
<title>module.network.aws_route_table_association.private_rt_assoc&#45;&gt;module.network.aws_route_table.private_rt</title>
<path fill="none" stroke="black" d="M1314.77,-547.92C1275.23,-545.09 1233.64,-542.12 1197.25,-539.51"/>
<polygon fill="black" stroke="black" points="1197.87,-536.05 1187.64,-538.83 1197.37,-543.03 1197.87,-536.05"/>
</g>
<!-- module.network.aws_route_table_association.private_rt_assoc&#45;&gt;module.network.aws_subnet.privatesubnet -->
<g id="edge26" class="edge">
<title>module.network.aws_route_table_association.private_rt_assoc&#45;&gt;module.network.aws_subnet.privatesubnet</title>
<path fill="none" stroke="black" d="M1314.86,-563.32C1100.84,-569.29 720.1,-579.91 535.89,-585.05"/>
<polygon fill="black" stroke="black" points="535.99,-581.55 526.09,-585.33 536.19,-588.55 535.99,-581.55"/>
</g>
<!-- module.network.aws_route_table_association.public_rt_assoc -->
<g id="node22" class="node">
<title>module.network.aws_route_table_association.public_rt_assoc</title>
<polygon fill="none" stroke="black" points="1243.62,-469 938.88,-469 938.88,-433 1243.62,-433 1243.62,-469"/>
<text text-anchor="middle" x="1091.25" y="-447.45" font-family="sans-serif" font-size="14.00">aws_route_table_association.public_rt_assoc</text>
</g>
<!-- module.network.aws_route_table_association.public_rt_assoc&#45;&gt;module.network.aws_route_table.public_rt -->
<g id="edge27" class="edge">
<title>module.network.aws_route_table_association.public_rt_assoc&#45;&gt;module.network.aws_route_table.public_rt</title>
<path fill="none" stroke="black" d="M938.46,-460.23C902.17,-462.44 864.27,-464.75 830.83,-466.78"/>
<polygon fill="black" stroke="black" points="830.95,-463.27 821.18,-467.37 831.37,-470.26 830.95,-463.27"/>
</g>
<!-- module.network.aws_route_table_association.public_rt_assoc&#45;&gt;module.network.aws_subnet.publicsubnet -->
<g id="edge28" class="edge">
<title>module.network.aws_route_table_association.public_rt_assoc&#45;&gt;module.network.aws_subnet.publicsubnet</title>
<path fill="none" stroke="black" d="M938.42,-445.25C813.98,-440.54 641.26,-433.99 532.66,-429.88"/>
<polygon fill="black" stroke="black" points="533.01,-426.39 522.89,-429.51 532.75,-433.39 533.01,-426.39"/>
</g>
<!-- module.network.aws_subnet.privatesubnet&#45;&gt;module.network.data.aws_availability_zones.available -->
<g id="edge29" class="edge">
<title>module.network.aws_subnet.privatesubnet&#45;&gt;module.network.data.aws_availability_zones.available</title>
<path fill="none" stroke="black" d="M334.08,-570.09C307.82,-565.1 279.1,-559.64 252.12,-554.51"/>
<polygon fill="black" stroke="black" points="253.05,-551.12 242.57,-552.69 251.74,-558 253.05,-551.12"/>
</g>
<!-- module.network.aws_subnet.privatesubnet&#45;&gt;module.network.aws_vpc.myvpc -->
<g id="edge30" class="edge">
<title>module.network.aws_subnet.privatesubnet&#45;&gt;module.network.aws_vpc.myvpc</title>
<path fill="none" stroke="black" d="M333.78,-574.78C324.11,-571.2 314.81,-566.69 306.5,-561 282.7,-544.7 291.07,-527.22 270.5,-507 247.21,-484.12 216.46,-464.22 191.14,-449.88"/>
<polygon fill="black" stroke="black" points="193.13,-446.98 182.69,-445.2 189.74,-453.11 193.13,-446.98"/>
</g>
<!-- module.network.aws_subnet.publicsubnet&#45;&gt;module.network.data.aws_availability_zones.available -->
<g id="edge31" class="edge">
<title>module.network.aws_subnet.publicsubnet&#45;&gt;module.network.data.aws_availability_zones.available</title>
<path fill="none" stroke="black" d="M336.81,-443.72C326.48,-446.47 316.19,-449.56 306.5,-453 263.52,-468.23 217.25,-492.15 185.16,-510.06"/>
<polygon fill="black" stroke="black" points="183.57,-506.94 176.58,-514.9 187.01,-513.03 183.57,-506.94"/>
</g>
<!-- module.network.aws_subnet.publicsubnet&#45;&gt;module.network.aws_vpc.myvpc -->
<g id="edge32" class="edge">
<title>module.network.aws_subnet.publicsubnet&#45;&gt;module.network.aws_vpc.myvpc</title>
<path fill="none" stroke="black" d="M336.83,-426C296.42,-426 249.72,-426 212.43,-426"/>
<polygon fill="black" stroke="black" points="212.69,-422.5 202.69,-426 212.69,-429.5 212.69,-422.5"/>
</g>
<!-- module.s3.aws_s3_bucket.mybucket -->
<g id="node26" class="node">
<title>module.s3.aws_s3_bucket.mybucket</title>
<polygon fill="none" stroke="black" points="1561.88,-836 1379.38,-836 1379.38,-800 1561.88,-800 1561.88,-836"/>
<text text-anchor="middle" x="1470.62" y="-814.45" font-family="sans-serif" font-size="14.00">aws_s3_bucket.mybucket</text>
</g>
<!-- module.s3.random_id.bucket_id -->
<g id="node27" class="node">
<title>module.s3.random_id.bucket_id</title>
<polygon fill="none" stroke="black" points="1167.12,-836 1015.38,-836 1015.38,-800 1167.12,-800 1167.12,-836"/>
<text text-anchor="middle" x="1091.25" y="-814.45" font-family="sans-serif" font-size="14.00">random_id.bucket_id</text>
</g>
<!-- module.s3.aws_s3_bucket.mybucket&#45;&gt;module.s3.random_id.bucket_id -->
<g id="edge33" class="edge">
<title>module.s3.aws_s3_bucket.mybucket&#45;&gt;module.s3.random_id.bucket_id</title>
<path fill="none" stroke="black" d="M1379.23,-818C1318.5,-818 1238.9,-818 1178.95,-818"/>
<polygon fill="black" stroke="black" points="1179.13,-814.5 1169.13,-818 1179.13,-821.5 1179.13,-814.5"/>
</g>
</g>
</svg>
